<mxfile host="app.diagrams.net" agent="Mozilla/5.0 (Windows NT 10.0; Win64; x64) AppleWebKit/537.36 (KHTML, like Gecko) Chrome/138.0.0.0 Safari/537.36" version="27.1.6">
  <diagram name="Pagina-1" id="XloMqrJBJrWgl7QUt-TO">
    <mxGraphModel dx="1296" dy="706" grid="1" gridSize="10" guides="1" tooltips="1" connect="1" arrows="1" fold="1" page="1" pageScale="1" pageWidth="827" pageHeight="1169" math="0" shadow="0">
      <root>
        <mxCell id="0" />
        <mxCell id="1" parent="0" />
        <mxCell id="qshYgTY-a6CuxJiKTBsL-17" style="edgeStyle=orthogonalEdgeStyle;rounded=0;orthogonalLoop=1;jettySize=auto;html=1;exitX=1;exitY=0.5;exitDx=0;exitDy=0;endArrow=none;startFill=0;" edge="1" parent="1" source="qshYgTY-a6CuxJiKTBsL-1">
          <mxGeometry relative="1" as="geometry">
            <mxPoint x="560" y="130" as="targetPoint" />
          </mxGeometry>
        </mxCell>
        <mxCell id="qshYgTY-a6CuxJiKTBsL-1" value="Note" style="whiteSpace=wrap;html=1;align=center;" vertex="1" parent="1">
          <mxGeometry x="380" y="110" width="100" height="40" as="geometry" />
        </mxCell>
        <mxCell id="qshYgTY-a6CuxJiKTBsL-2" value="Written" style="shape=rhombus;perimeter=rhombusPerimeter;whiteSpace=wrap;html=1;align=center;" vertex="1" parent="1">
          <mxGeometry x="560" y="100" width="120" height="60" as="geometry" />
        </mxCell>
        <mxCell id="qshYgTY-a6CuxJiKTBsL-15" style="edgeStyle=orthogonalEdgeStyle;rounded=0;orthogonalLoop=1;jettySize=auto;html=1;exitX=0.5;exitY=1;exitDx=0;exitDy=0;entryX=0.5;entryY=0;entryDx=0;entryDy=0;strokeColor=default;endArrow=none;startFill=0;" edge="1" parent="1" source="qshYgTY-a6CuxJiKTBsL-4" target="qshYgTY-a6CuxJiKTBsL-10">
          <mxGeometry relative="1" as="geometry" />
        </mxCell>
        <mxCell id="qshYgTY-a6CuxJiKTBsL-16" style="edgeStyle=orthogonalEdgeStyle;rounded=0;orthogonalLoop=1;jettySize=auto;html=1;exitX=1;exitY=0.5;exitDx=0;exitDy=0;endArrow=none;startFill=0;" edge="1" parent="1" source="qshYgTY-a6CuxJiKTBsL-4">
          <mxGeometry relative="1" as="geometry">
            <mxPoint x="380" y="130" as="targetPoint" />
          </mxGeometry>
        </mxCell>
        <mxCell id="qshYgTY-a6CuxJiKTBsL-4" value="About" style="shape=rhombus;perimeter=rhombusPerimeter;whiteSpace=wrap;html=1;align=center;" vertex="1" parent="1">
          <mxGeometry x="140" y="100" width="120" height="60" as="geometry" />
        </mxCell>
        <mxCell id="qshYgTY-a6CuxJiKTBsL-21" style="edgeStyle=orthogonalEdgeStyle;rounded=0;orthogonalLoop=1;jettySize=auto;html=1;entryX=0.75;entryY=0;entryDx=0;entryDy=0;endArrow=none;startFill=0;" edge="1" parent="1" source="qshYgTY-a6CuxJiKTBsL-5" target="qshYgTY-a6CuxJiKTBsL-10">
          <mxGeometry relative="1" as="geometry" />
        </mxCell>
        <mxCell id="qshYgTY-a6CuxJiKTBsL-5" value="Subscribed" style="shape=rhombus;perimeter=rhombusPerimeter;whiteSpace=wrap;html=1;align=center;" vertex="1" parent="1">
          <mxGeometry x="374" y="230" width="120" height="60" as="geometry" />
        </mxCell>
        <mxCell id="qshYgTY-a6CuxJiKTBsL-25" style="edgeStyle=orthogonalEdgeStyle;rounded=0;orthogonalLoop=1;jettySize=auto;html=1;endArrow=none;startFill=0;" edge="1" parent="1" source="qshYgTY-a6CuxJiKTBsL-6" target="qshYgTY-a6CuxJiKTBsL-11">
          <mxGeometry relative="1" as="geometry" />
        </mxCell>
        <mxCell id="qshYgTY-a6CuxJiKTBsL-6" value="Held by" style="shape=rhombus;perimeter=rhombusPerimeter;whiteSpace=wrap;html=1;align=center;" vertex="1" parent="1">
          <mxGeometry x="350" y="340" width="120" height="60" as="geometry" />
        </mxCell>
        <mxCell id="qshYgTY-a6CuxJiKTBsL-37" style="edgeStyle=orthogonalEdgeStyle;rounded=0;orthogonalLoop=1;jettySize=auto;html=1;exitX=0.5;exitY=1;exitDx=0;exitDy=0;entryX=0;entryY=0.5;entryDx=0;entryDy=0;endArrow=none;startFill=0;" edge="1" parent="1" source="qshYgTY-a6CuxJiKTBsL-7" target="qshYgTY-a6CuxJiKTBsL-13">
          <mxGeometry relative="1" as="geometry" />
        </mxCell>
        <mxCell id="qshYgTY-a6CuxJiKTBsL-7" value="of the" style="shape=rhombus;perimeter=rhombusPerimeter;whiteSpace=wrap;html=1;align=center;" vertex="1" parent="1">
          <mxGeometry x="290" y="450" width="80" height="40" as="geometry" />
        </mxCell>
        <mxCell id="qshYgTY-a6CuxJiKTBsL-31" style="edgeStyle=orthogonalEdgeStyle;rounded=0;orthogonalLoop=1;jettySize=auto;html=1;exitX=0.5;exitY=0;exitDx=0;exitDy=0;entryX=0.5;entryY=1;entryDx=0;entryDy=0;endArrow=none;startFill=0;" edge="1" parent="1" source="qshYgTY-a6CuxJiKTBsL-8" target="qshYgTY-a6CuxJiKTBsL-11">
          <mxGeometry relative="1" as="geometry" />
        </mxCell>
        <mxCell id="qshYgTY-a6CuxJiKTBsL-35" style="edgeStyle=orthogonalEdgeStyle;rounded=0;orthogonalLoop=1;jettySize=auto;html=1;entryX=1;entryY=0.5;entryDx=0;entryDy=0;endArrow=none;startFill=0;" edge="1" parent="1" source="qshYgTY-a6CuxJiKTBsL-8" target="qshYgTY-a6CuxJiKTBsL-12">
          <mxGeometry relative="1" as="geometry" />
        </mxCell>
        <mxCell id="qshYgTY-a6CuxJiKTBsL-8" value="Gives" style="shape=rhombus;perimeter=rhombusPerimeter;whiteSpace=wrap;html=1;align=center;" vertex="1" parent="1">
          <mxGeometry x="570" y="640" width="120" height="60" as="geometry" />
        </mxCell>
        <mxCell id="qshYgTY-a6CuxJiKTBsL-27" style="edgeStyle=orthogonalEdgeStyle;rounded=0;orthogonalLoop=1;jettySize=auto;html=1;exitX=0.5;exitY=1;exitDx=0;exitDy=0;entryX=0.5;entryY=0;entryDx=0;entryDy=0;endArrow=none;startFill=0;" edge="1" parent="1" source="qshYgTY-a6CuxJiKTBsL-9" target="qshYgTY-a6CuxJiKTBsL-20">
          <mxGeometry relative="1" as="geometry" />
        </mxCell>
        <mxCell id="qshYgTY-a6CuxJiKTBsL-9" value="Belongs to&amp;nbsp;" style="shape=rhombus;perimeter=rhombusPerimeter;whiteSpace=wrap;html=1;align=center;" vertex="1" parent="1">
          <mxGeometry x="140" y="480" width="120" height="60" as="geometry" />
        </mxCell>
        <mxCell id="qshYgTY-a6CuxJiKTBsL-24" style="edgeStyle=orthogonalEdgeStyle;rounded=0;orthogonalLoop=1;jettySize=auto;html=1;exitX=1;exitY=0.5;exitDx=0;exitDy=0;entryX=0;entryY=0.5;entryDx=0;entryDy=0;endArrow=none;startFill=0;" edge="1" parent="1" source="qshYgTY-a6CuxJiKTBsL-10" target="qshYgTY-a6CuxJiKTBsL-6">
          <mxGeometry relative="1" as="geometry" />
        </mxCell>
        <mxCell id="qshYgTY-a6CuxJiKTBsL-26" style="edgeStyle=orthogonalEdgeStyle;rounded=0;orthogonalLoop=1;jettySize=auto;html=1;exitX=0.5;exitY=1;exitDx=0;exitDy=0;endArrow=none;startFill=0;" edge="1" parent="1" source="qshYgTY-a6CuxJiKTBsL-10" target="qshYgTY-a6CuxJiKTBsL-9">
          <mxGeometry relative="1" as="geometry" />
        </mxCell>
        <mxCell id="qshYgTY-a6CuxJiKTBsL-10" value="Course" style="whiteSpace=wrap;html=1;align=center;" vertex="1" parent="1">
          <mxGeometry x="140" y="340" width="120" height="60" as="geometry" />
        </mxCell>
        <mxCell id="qshYgTY-a6CuxJiKTBsL-11" value="User" style="whiteSpace=wrap;html=1;align=center;" vertex="1" parent="1">
          <mxGeometry x="580" y="350" width="100" height="40" as="geometry" />
        </mxCell>
        <mxCell id="qshYgTY-a6CuxJiKTBsL-12" value="Quiz Answers" style="whiteSpace=wrap;html=1;align=center;" vertex="1" parent="1">
          <mxGeometry x="360" y="650" width="100" height="40" as="geometry" />
        </mxCell>
        <mxCell id="qshYgTY-a6CuxJiKTBsL-13" value="Quiz" style="whiteSpace=wrap;html=1;align=center;" vertex="1" parent="1">
          <mxGeometry x="360" y="525" width="100" height="40" as="geometry" />
        </mxCell>
        <mxCell id="qshYgTY-a6CuxJiKTBsL-28" style="edgeStyle=orthogonalEdgeStyle;rounded=0;orthogonalLoop=1;jettySize=auto;html=1;exitX=0.5;exitY=1;exitDx=0;exitDy=0;entryX=0.5;entryY=0;entryDx=0;entryDy=0;endArrow=none;startFill=0;" edge="1" parent="1" source="qshYgTY-a6CuxJiKTBsL-18" target="qshYgTY-a6CuxJiKTBsL-12">
          <mxGeometry relative="1" as="geometry" />
        </mxCell>
        <mxCell id="qshYgTY-a6CuxJiKTBsL-29" style="edgeStyle=orthogonalEdgeStyle;rounded=0;orthogonalLoop=1;jettySize=auto;html=1;exitX=0.5;exitY=0;exitDx=0;exitDy=0;entryX=0.5;entryY=1;entryDx=0;entryDy=0;endArrow=none;startFill=0;" edge="1" parent="1" source="qshYgTY-a6CuxJiKTBsL-18" target="qshYgTY-a6CuxJiKTBsL-13">
          <mxGeometry relative="1" as="geometry">
            <mxPoint x="410" y="570" as="targetPoint" />
          </mxGeometry>
        </mxCell>
        <mxCell id="qshYgTY-a6CuxJiKTBsL-18" value="of" style="shape=rhombus;perimeter=rhombusPerimeter;whiteSpace=wrap;html=1;align=center;" vertex="1" parent="1">
          <mxGeometry x="370" y="580" width="80" height="40" as="geometry" />
        </mxCell>
        <mxCell id="qshYgTY-a6CuxJiKTBsL-32" style="edgeStyle=orthogonalEdgeStyle;rounded=0;orthogonalLoop=1;jettySize=auto;html=1;entryX=0.25;entryY=1;entryDx=0;entryDy=0;endArrow=none;startFill=0;" edge="1" parent="1" source="qshYgTY-a6CuxJiKTBsL-19" target="qshYgTY-a6CuxJiKTBsL-11">
          <mxGeometry relative="1" as="geometry">
            <Array as="points">
              <mxPoint x="605" y="545" />
            </Array>
          </mxGeometry>
        </mxCell>
        <mxCell id="qshYgTY-a6CuxJiKTBsL-19" value="&lt;font style=&quot;font-size: 10px;&quot;&gt;issued by&lt;/font&gt;" style="shape=rhombus;perimeter=rhombusPerimeter;whiteSpace=wrap;html=1;align=center;" vertex="1" parent="1">
          <mxGeometry x="494" y="522.5" width="90" height="45" as="geometry" />
        </mxCell>
        <mxCell id="qshYgTY-a6CuxJiKTBsL-20" value="Course Material" style="whiteSpace=wrap;html=1;align=center;" vertex="1" parent="1">
          <mxGeometry x="140" y="600" width="120" height="60" as="geometry" />
        </mxCell>
        <mxCell id="qshYgTY-a6CuxJiKTBsL-22" style="edgeStyle=orthogonalEdgeStyle;rounded=0;orthogonalLoop=1;jettySize=auto;html=1;exitX=1;exitY=0.5;exitDx=0;exitDy=0;entryX=0.18;entryY=0;entryDx=0;entryDy=0;entryPerimeter=0;endArrow=none;startFill=0;" edge="1" parent="1" source="qshYgTY-a6CuxJiKTBsL-5" target="qshYgTY-a6CuxJiKTBsL-11">
          <mxGeometry relative="1" as="geometry" />
        </mxCell>
        <mxCell id="qshYgTY-a6CuxJiKTBsL-23" style="edgeStyle=orthogonalEdgeStyle;rounded=0;orthogonalLoop=1;jettySize=auto;html=1;exitX=0.5;exitY=1;exitDx=0;exitDy=0;entryX=0.4;entryY=-0.075;entryDx=0;entryDy=0;entryPerimeter=0;endArrow=none;startFill=0;" edge="1" parent="1" source="qshYgTY-a6CuxJiKTBsL-2" target="qshYgTY-a6CuxJiKTBsL-11">
          <mxGeometry relative="1" as="geometry" />
        </mxCell>
        <mxCell id="qshYgTY-a6CuxJiKTBsL-36" style="edgeStyle=orthogonalEdgeStyle;rounded=0;orthogonalLoop=1;jettySize=auto;html=1;entryX=1;entryY=0.883;entryDx=0;entryDy=0;entryPerimeter=0;endArrow=none;startFill=0;" edge="1" parent="1" source="qshYgTY-a6CuxJiKTBsL-7" target="qshYgTY-a6CuxJiKTBsL-10">
          <mxGeometry relative="1" as="geometry">
            <Array as="points">
              <mxPoint x="330" y="393" />
            </Array>
          </mxGeometry>
        </mxCell>
        <mxCell id="qshYgTY-a6CuxJiKTBsL-43" style="edgeStyle=orthogonalEdgeStyle;rounded=0;orthogonalLoop=1;jettySize=auto;html=1;endArrow=none;startFill=0;entryX=0.09;entryY=0;entryDx=0;entryDy=0;entryPerimeter=0;" edge="1" parent="1" target="qshYgTY-a6CuxJiKTBsL-12">
          <mxGeometry relative="1" as="geometry">
            <mxPoint x="369" y="640" as="targetPoint" />
            <mxPoint x="369" y="620.0000000000001" as="sourcePoint" />
          </mxGeometry>
        </mxCell>
        <mxCell id="qshYgTY-a6CuxJiKTBsL-44" value="" style="endArrow=none;html=1;rounded=0;" edge="1" parent="1" source="qshYgTY-a6CuxJiKTBsL-328">
          <mxGeometry width="50" height="50" relative="1" as="geometry">
            <mxPoint x="360" y="630" as="sourcePoint" />
            <mxPoint x="430" y="630" as="targetPoint" />
            <Array as="points">
              <mxPoint x="390" y="630" />
            </Array>
          </mxGeometry>
        </mxCell>
        <mxCell id="qshYgTY-a6CuxJiKTBsL-47" style="edgeStyle=orthogonalEdgeStyle;rounded=0;orthogonalLoop=1;jettySize=auto;html=1;endArrow=none;startFill=0;" edge="1" parent="1">
          <mxGeometry relative="1" as="geometry">
            <mxPoint x="368.9" y="710" as="targetPoint" />
            <mxPoint x="369" y="700" as="sourcePoint" />
            <Array as="points">
              <mxPoint x="368.9" y="690" />
              <mxPoint x="368.9" y="690" />
            </Array>
          </mxGeometry>
        </mxCell>
        <mxCell id="qshYgTY-a6CuxJiKTBsL-49" style="edgeStyle=orthogonalEdgeStyle;rounded=0;orthogonalLoop=1;jettySize=auto;html=1;endArrow=none;startFill=0;" edge="1" parent="1">
          <mxGeometry relative="1" as="geometry">
            <mxPoint x="394.9" y="710" as="targetPoint" />
            <mxPoint x="394.9" y="700" as="sourcePoint" />
            <Array as="points">
              <mxPoint x="394.9" y="690" />
              <mxPoint x="394.9" y="690" />
            </Array>
          </mxGeometry>
        </mxCell>
        <mxCell id="qshYgTY-a6CuxJiKTBsL-50" style="edgeStyle=orthogonalEdgeStyle;rounded=0;orthogonalLoop=1;jettySize=auto;html=1;endArrow=none;startFill=0;" edge="1" parent="1">
          <mxGeometry relative="1" as="geometry">
            <mxPoint x="419" y="710" as="targetPoint" />
            <mxPoint x="419.1" y="700" as="sourcePoint" />
            <Array as="points">
              <mxPoint x="419" y="690" />
              <mxPoint x="419" y="690" />
            </Array>
          </mxGeometry>
        </mxCell>
        <mxCell id="qshYgTY-a6CuxJiKTBsL-52" style="edgeStyle=orthogonalEdgeStyle;rounded=0;orthogonalLoop=1;jettySize=auto;html=1;endArrow=none;startFill=0;entryX=0;entryY=0.5;entryDx=0;entryDy=0;" edge="1" parent="1">
          <mxGeometry relative="1" as="geometry">
            <mxPoint x="484" y="685.0000000000001" as="targetPoint" />
            <mxPoint x="460" y="684.9" as="sourcePoint" />
            <Array as="points" />
          </mxGeometry>
        </mxCell>
        <mxCell id="qshYgTY-a6CuxJiKTBsL-57" style="edgeStyle=orthogonalEdgeStyle;rounded=0;orthogonalLoop=1;jettySize=auto;html=1;endArrow=none;startFill=0;" edge="1" parent="1">
          <mxGeometry relative="1" as="geometry">
            <mxPoint x="474.9" y="690" as="targetPoint" />
            <mxPoint x="474.9" y="660" as="sourcePoint" />
            <Array as="points">
              <mxPoint x="474.79999999999995" y="660" />
              <mxPoint x="474.79999999999995" y="660" />
            </Array>
          </mxGeometry>
        </mxCell>
        <mxCell id="qshYgTY-a6CuxJiKTBsL-69" value="&lt;font style=&quot;font-weight: normal; font-size: 8px;&quot;&gt;ID&lt;/font&gt;" style="text;strokeColor=none;fillColor=none;html=1;fontSize=24;fontStyle=1;verticalAlign=middle;align=center;" vertex="1" parent="1">
          <mxGeometry x="345" y="707.5" width="44" height="20" as="geometry" />
        </mxCell>
        <mxCell id="qshYgTY-a6CuxJiKTBsL-73" value="&lt;font style=&quot;font-weight: normal; font-size: 6px;&quot;&gt;Answers&lt;/font&gt;" style="text;strokeColor=none;fillColor=none;html=1;fontSize=24;fontStyle=1;verticalAlign=middle;align=center;" vertex="1" parent="1">
          <mxGeometry x="373" y="710" width="44" height="15" as="geometry" />
        </mxCell>
        <mxCell id="qshYgTY-a6CuxJiKTBsL-74" value="&lt;font style=&quot;font-weight: normal; font-size: 6px;&quot;&gt;Score&lt;/font&gt;" style="text;strokeColor=none;fillColor=none;html=1;fontSize=24;fontStyle=1;verticalAlign=middle;align=center;" vertex="1" parent="1">
          <mxGeometry x="398.5" y="710" width="44" height="20" as="geometry" />
        </mxCell>
        <mxCell id="qshYgTY-a6CuxJiKTBsL-75" value="&lt;font style=&quot;font-weight: normal; font-size: 6px;&quot;&gt;Student_ID&lt;/font&gt;" style="text;strokeColor=none;fillColor=none;html=1;fontSize=24;fontStyle=1;verticalAlign=middle;align=center;" vertex="1" parent="1">
          <mxGeometry x="467" y="690" width="44" height="20" as="geometry" />
        </mxCell>
        <mxCell id="qshYgTY-a6CuxJiKTBsL-76" value="&lt;font style=&quot;font-weight: normal; font-size: 10px;&quot;&gt;(0,1)&lt;/font&gt;" style="text;strokeColor=none;fillColor=none;html=1;fontSize=24;fontStyle=1;verticalAlign=middle;align=center;" vertex="1" parent="1">
          <mxGeometry x="494" y="635" width="44" height="30" as="geometry" />
        </mxCell>
        <mxCell id="qshYgTY-a6CuxJiKTBsL-77" value="&lt;font style=&quot;font-weight: normal; font-size: 10px;&quot;&gt;(1,1)&lt;/font&gt;" style="text;strokeColor=none;fillColor=none;html=1;fontSize=24;fontStyle=1;verticalAlign=middle;align=center;" vertex="1" parent="1">
          <mxGeometry x="440" y="610" width="44" height="30" as="geometry" />
        </mxCell>
        <mxCell id="qshYgTY-a6CuxJiKTBsL-78" value="&lt;font style=&quot;font-weight: normal; font-size: 6px;&quot;&gt;Quiz_ID&lt;/font&gt;" style="text;strokeColor=none;fillColor=none;html=1;fontSize=24;fontStyle=1;verticalAlign=middle;align=center;" vertex="1" parent="1">
          <mxGeometry x="320" y="595" width="44" height="30" as="geometry" />
        </mxCell>
        <mxCell id="qshYgTY-a6CuxJiKTBsL-79" value="&lt;font style=&quot;font-weight: normal; font-size: 10px;&quot;&gt;(1,N)&lt;/font&gt;" style="text;strokeColor=none;fillColor=none;html=1;fontSize=24;fontStyle=1;verticalAlign=middle;align=center;" vertex="1" parent="1">
          <mxGeometry x="423" y="555" width="44" height="30" as="geometry" />
        </mxCell>
        <mxCell id="qshYgTY-a6CuxJiKTBsL-81" style="edgeStyle=orthogonalEdgeStyle;rounded=0;orthogonalLoop=1;jettySize=auto;html=1;exitX=1;exitY=0.5;exitDx=0;exitDy=0;entryX=0.031;entryY=0.491;entryDx=0;entryDy=0;entryPerimeter=0;endArrow=none;startFill=0;" edge="1" parent="1" source="qshYgTY-a6CuxJiKTBsL-13" target="qshYgTY-a6CuxJiKTBsL-19">
          <mxGeometry relative="1" as="geometry" />
        </mxCell>
        <mxCell id="qshYgTY-a6CuxJiKTBsL-82" value="&lt;font style=&quot;font-weight: normal; font-size: 7px;&quot;&gt;Student&lt;/font&gt;" style="text;strokeColor=none;fillColor=none;html=1;fontSize=24;fontStyle=1;verticalAlign=middle;align=center;" vertex="1" parent="1">
          <mxGeometry x="640" y="390" width="34" height="20" as="geometry" />
        </mxCell>
        <mxCell id="qshYgTY-a6CuxJiKTBsL-83" value="&lt;font style=&quot;font-weight: normal; font-size: 7px;&quot;&gt;Student&lt;/font&gt;" style="text;strokeColor=none;fillColor=none;html=1;fontSize=24;fontStyle=1;verticalAlign=middle;align=center;" vertex="1" parent="1">
          <mxGeometry x="620" y="320" width="34" height="20" as="geometry" />
        </mxCell>
        <mxCell id="qshYgTY-a6CuxJiKTBsL-84" value="&lt;font style=&quot;font-weight: normal; font-size: 7px;&quot;&gt;Student&lt;/font&gt;" style="text;strokeColor=none;fillColor=none;html=1;fontSize=24;fontStyle=1;verticalAlign=middle;align=center;" vertex="1" parent="1">
          <mxGeometry x="560" y="320" width="34" height="20" as="geometry" />
        </mxCell>
        <mxCell id="qshYgTY-a6CuxJiKTBsL-85" value="&lt;font style=&quot;font-weight: normal; font-size: 7px;&quot;&gt;Professor&lt;/font&gt;" style="text;strokeColor=none;fillColor=none;html=1;fontSize=24;fontStyle=1;verticalAlign=middle;align=center;" vertex="1" parent="1">
          <mxGeometry x="538" y="340" width="34" height="20" as="geometry" />
        </mxCell>
        <mxCell id="qshYgTY-a6CuxJiKTBsL-87" value="&lt;font style=&quot;font-weight: normal; font-size: 7px;&quot;&gt;Professor&lt;/font&gt;" style="text;strokeColor=none;fillColor=none;html=1;fontSize=24;fontStyle=1;verticalAlign=middle;align=center;" vertex="1" parent="1">
          <mxGeometry x="570" y="390" width="34" height="20" as="geometry" />
        </mxCell>
        <mxCell id="qshYgTY-a6CuxJiKTBsL-88" style="edgeStyle=orthogonalEdgeStyle;rounded=0;orthogonalLoop=1;jettySize=auto;html=1;endArrow=none;startFill=0;" edge="1" parent="1">
          <mxGeometry relative="1" as="geometry">
            <mxPoint x="478.88" y="555" as="targetPoint" />
            <mxPoint x="478.88" y="525" as="sourcePoint" />
            <Array as="points">
              <mxPoint x="478.78" y="525" />
              <mxPoint x="478.78" y="525" />
            </Array>
          </mxGeometry>
        </mxCell>
        <mxCell id="qshYgTY-a6CuxJiKTBsL-90" style="edgeStyle=orthogonalEdgeStyle;rounded=0;orthogonalLoop=1;jettySize=auto;html=1;endArrow=none;startFill=0;entryX=0;entryY=0.5;entryDx=0;entryDy=0;" edge="1" parent="1">
          <mxGeometry relative="1" as="geometry">
            <mxPoint x="484" y="530.1" as="targetPoint" />
            <mxPoint x="460" y="530" as="sourcePoint" />
            <Array as="points" />
          </mxGeometry>
        </mxCell>
        <mxCell id="qshYgTY-a6CuxJiKTBsL-92" value="&lt;span style=&quot;font-size: 6px; text-align: center; text-wrap-mode: nowrap;&quot;&gt;Prof_ID&lt;/span&gt;" style="text;whiteSpace=wrap;html=1;" vertex="1" parent="1">
          <mxGeometry x="480" y="502.5" width="20" height="20" as="geometry" />
        </mxCell>
        <mxCell id="qshYgTY-a6CuxJiKTBsL-93" value="&lt;font style=&quot;font-weight: normal; font-size: 10px;&quot;&gt;(1,1)&lt;/font&gt;" style="text;strokeColor=none;fillColor=none;html=1;fontSize=24;fontStyle=1;verticalAlign=middle;align=center;" vertex="1" parent="1">
          <mxGeometry x="480" y="555" width="34" height="20" as="geometry" />
        </mxCell>
        <mxCell id="qshYgTY-a6CuxJiKTBsL-110" value="" style="ellipse;whiteSpace=wrap;html=1;aspect=fixed;fillColor=light-dark(#FFFFFF,#FFFFFF);strokeWidth=1;perimeterSpacing=0;" vertex="1" parent="1">
          <mxGeometry x="366" y="502.5" width="6" height="6" as="geometry" />
        </mxCell>
        <mxCell id="qshYgTY-a6CuxJiKTBsL-112" style="edgeStyle=orthogonalEdgeStyle;rounded=0;orthogonalLoop=1;jettySize=auto;html=1;exitX=0.5;exitY=0;exitDx=0;exitDy=0;entryX=0.5;entryY=1;entryDx=0;entryDy=0;endArrow=none;startFill=0;" edge="1" parent="1" target="qshYgTY-a6CuxJiKTBsL-110">
          <mxGeometry relative="1" as="geometry">
            <mxPoint x="368.93" y="510" as="targetPoint" />
            <mxPoint x="368.93" y="525" as="sourcePoint" />
          </mxGeometry>
        </mxCell>
        <mxCell id="qshYgTY-a6CuxJiKTBsL-113" value="" style="ellipse;whiteSpace=wrap;html=1;aspect=fixed;fillColor=light-dark(#FFFFFF,#000000);strokeWidth=1;perimeterSpacing=0;" vertex="1" parent="1">
          <mxGeometry x="380" y="502.5" width="6" height="6" as="geometry" />
        </mxCell>
        <mxCell id="qshYgTY-a6CuxJiKTBsL-114" style="edgeStyle=orthogonalEdgeStyle;rounded=0;orthogonalLoop=1;jettySize=auto;html=1;exitX=0.5;exitY=0;exitDx=0;exitDy=0;entryX=0.5;entryY=1;entryDx=0;entryDy=0;endArrow=none;startFill=0;" edge="1" parent="1" target="qshYgTY-a6CuxJiKTBsL-113">
          <mxGeometry relative="1" as="geometry">
            <mxPoint x="382.93" y="510" as="targetPoint" />
            <mxPoint x="382.93" y="525" as="sourcePoint" />
          </mxGeometry>
        </mxCell>
        <mxCell id="qshYgTY-a6CuxJiKTBsL-117" value="" style="ellipse;whiteSpace=wrap;html=1;aspect=fixed;fillColor=light-dark(#FFFFFF,#000000);strokeWidth=1;perimeterSpacing=0;" vertex="1" parent="1">
          <mxGeometry x="396" y="502.5" width="6" height="6" as="geometry" />
        </mxCell>
        <mxCell id="qshYgTY-a6CuxJiKTBsL-118" style="edgeStyle=orthogonalEdgeStyle;rounded=0;orthogonalLoop=1;jettySize=auto;html=1;exitX=0.5;exitY=0;exitDx=0;exitDy=0;entryX=0.5;entryY=1;entryDx=0;entryDy=0;endArrow=none;startFill=0;" edge="1" parent="1" target="qshYgTY-a6CuxJiKTBsL-117">
          <mxGeometry relative="1" as="geometry">
            <mxPoint x="398.93" y="510" as="targetPoint" />
            <mxPoint x="398.93" y="525" as="sourcePoint" />
          </mxGeometry>
        </mxCell>
        <mxCell id="qshYgTY-a6CuxJiKTBsL-119" value="" style="ellipse;whiteSpace=wrap;html=1;aspect=fixed;fillColor=light-dark(#FFFFFF,#000000);strokeWidth=1;perimeterSpacing=0;" vertex="1" parent="1">
          <mxGeometry x="414" y="502.5" width="6" height="6" as="geometry" />
        </mxCell>
        <mxCell id="qshYgTY-a6CuxJiKTBsL-120" style="edgeStyle=orthogonalEdgeStyle;rounded=0;orthogonalLoop=1;jettySize=auto;html=1;exitX=0.5;exitY=0;exitDx=0;exitDy=0;entryX=0.5;entryY=1;entryDx=0;entryDy=0;endArrow=none;startFill=0;" edge="1" parent="1" target="qshYgTY-a6CuxJiKTBsL-119">
          <mxGeometry relative="1" as="geometry">
            <mxPoint x="420.93" y="510" as="targetPoint" />
            <mxPoint x="420.93" y="525" as="sourcePoint" />
          </mxGeometry>
        </mxCell>
        <mxCell id="qshYgTY-a6CuxJiKTBsL-121" value="" style="ellipse;whiteSpace=wrap;html=1;aspect=fixed;fillColor=light-dark(#FFFFFF,#000000);strokeWidth=1;perimeterSpacing=0;" vertex="1" parent="1">
          <mxGeometry x="432" y="502.5" width="6" height="6" as="geometry" />
        </mxCell>
        <mxCell id="qshYgTY-a6CuxJiKTBsL-122" style="edgeStyle=orthogonalEdgeStyle;rounded=0;orthogonalLoop=1;jettySize=auto;html=1;exitX=0.5;exitY=0;exitDx=0;exitDy=0;entryX=0.5;entryY=1;entryDx=0;entryDy=0;endArrow=none;startFill=0;" edge="1" parent="1" target="qshYgTY-a6CuxJiKTBsL-121">
          <mxGeometry relative="1" as="geometry">
            <mxPoint x="434.93" y="510" as="targetPoint" />
            <mxPoint x="434.93" y="525" as="sourcePoint" />
          </mxGeometry>
        </mxCell>
        <mxCell id="qshYgTY-a6CuxJiKTBsL-123" value="" style="ellipse;whiteSpace=wrap;html=1;aspect=fixed;fillColor=light-dark(#FFFFFF,#000000);strokeWidth=1;perimeterSpacing=0;" vertex="1" parent="1">
          <mxGeometry x="448" y="502.5" width="6" height="6" as="geometry" />
        </mxCell>
        <mxCell id="qshYgTY-a6CuxJiKTBsL-124" style="edgeStyle=orthogonalEdgeStyle;rounded=0;orthogonalLoop=1;jettySize=auto;html=1;exitX=0.5;exitY=0;exitDx=0;exitDy=0;entryX=0.5;entryY=1;entryDx=0;entryDy=0;endArrow=none;startFill=0;" edge="1" parent="1" target="qshYgTY-a6CuxJiKTBsL-123">
          <mxGeometry relative="1" as="geometry">
            <mxPoint x="450.93" y="510" as="targetPoint" />
            <mxPoint x="450.93" y="525" as="sourcePoint" />
          </mxGeometry>
        </mxCell>
        <mxCell id="qshYgTY-a6CuxJiKTBsL-125" value="&lt;font style=&quot;font-size: 6px;&quot;&gt;ID&lt;/font&gt;" style="text;whiteSpace=wrap;html=1;" vertex="1" parent="1">
          <mxGeometry x="364" y="482.5" width="14" height="20" as="geometry" />
        </mxCell>
        <mxCell id="qshYgTY-a6CuxJiKTBsL-133" value="&lt;font style=&quot;font-size: 6px;&quot;&gt;Title&lt;/font&gt;" style="text;whiteSpace=wrap;html=1;" vertex="1" parent="1">
          <mxGeometry x="376" y="482.5" width="14" height="20" as="geometry" />
        </mxCell>
        <mxCell id="qshYgTY-a6CuxJiKTBsL-134" value="&lt;font style=&quot;font-size: 6px;&quot;&gt;Desc&lt;/font&gt;" style="text;whiteSpace=wrap;html=1;" vertex="1" parent="1">
          <mxGeometry x="391" y="482.5" width="16" height="20" as="geometry" />
        </mxCell>
        <mxCell id="qshYgTY-a6CuxJiKTBsL-135" value="&lt;font style=&quot;font-size: 6px;&quot;&gt;Text&lt;/font&gt;" style="text;whiteSpace=wrap;html=1;" vertex="1" parent="1">
          <mxGeometry x="409" y="482.5" width="14" height="20" as="geometry" />
        </mxCell>
        <mxCell id="qshYgTY-a6CuxJiKTBsL-137" value="&lt;font style=&quot;font-size: 6px;&quot;&gt;Options&lt;/font&gt;" style="text;whiteSpace=wrap;html=1;" vertex="1" parent="1">
          <mxGeometry x="423" y="482.5" width="30" height="20" as="geometry" />
        </mxCell>
        <mxCell id="qshYgTY-a6CuxJiKTBsL-138" value="&lt;font style=&quot;font-size: 6px;&quot;&gt;Correct answers&lt;/font&gt;" style="text;whiteSpace=wrap;html=1;" vertex="1" parent="1">
          <mxGeometry x="448" y="482.5" width="52" height="20" as="geometry" />
        </mxCell>
        <mxCell id="qshYgTY-a6CuxJiKTBsL-139" style="edgeStyle=orthogonalEdgeStyle;rounded=0;orthogonalLoop=1;jettySize=auto;html=1;endArrow=none;startFill=0;entryX=0;entryY=0.5;entryDx=0;entryDy=0;exitX=1;exitY=0.5;exitDx=0;exitDy=0;" edge="1" parent="1" source="qshYgTY-a6CuxJiKTBsL-326">
          <mxGeometry relative="1" as="geometry">
            <mxPoint x="360" y="560.01" as="targetPoint" />
            <mxPoint x="335" y="560.0000000000001" as="sourcePoint" />
            <Array as="points" />
          </mxGeometry>
        </mxCell>
        <mxCell id="qshYgTY-a6CuxJiKTBsL-142" style="edgeStyle=orthogonalEdgeStyle;rounded=0;orthogonalLoop=1;jettySize=auto;html=1;endArrow=none;startFill=0;" edge="1" parent="1">
          <mxGeometry relative="1" as="geometry">
            <mxPoint x="344.91" y="567.5" as="targetPoint" />
            <mxPoint x="344.91" y="537.5" as="sourcePoint" />
            <Array as="points">
              <mxPoint x="344.81" y="537.5" />
              <mxPoint x="344.81" y="537.5" />
            </Array>
          </mxGeometry>
        </mxCell>
        <mxCell id="qshYgTY-a6CuxJiKTBsL-146" value="&lt;font style=&quot;font-weight: normal; font-size: 6px;&quot;&gt;Course_ID&lt;/font&gt;" style="text;strokeColor=none;fillColor=none;html=1;fontSize=24;fontStyle=1;verticalAlign=middle;align=center;" vertex="1" parent="1">
          <mxGeometry x="306" y="570" width="44" height="11" as="geometry" />
        </mxCell>
        <mxCell id="qshYgTY-a6CuxJiKTBsL-151" value="&lt;span style=&quot;font-weight: 400;&quot;&gt;&lt;font style=&quot;font-size: 10px;&quot;&gt;(0,N)&lt;/font&gt;&lt;/span&gt;" style="text;strokeColor=none;fillColor=none;html=1;fontSize=24;fontStyle=1;verticalAlign=middle;align=center;" vertex="1" parent="1">
          <mxGeometry x="560" y="280" width="44" height="30" as="geometry" />
        </mxCell>
        <mxCell id="qshYgTY-a6CuxJiKTBsL-152" value="&lt;span style=&quot;font-weight: 400;&quot;&gt;&lt;font style=&quot;font-size: 10px;&quot;&gt;(0,N)&lt;/font&gt;&lt;/span&gt;" style="text;strokeColor=none;fillColor=none;html=1;fontSize=24;fontStyle=1;verticalAlign=middle;align=center;" vertex="1" parent="1">
          <mxGeometry x="219" y="280" width="50" height="40" as="geometry" />
        </mxCell>
        <mxCell id="qshYgTY-a6CuxJiKTBsL-153" value="&lt;span style=&quot;font-weight: 400;&quot;&gt;&lt;font style=&quot;font-size: 10px;&quot;&gt;(0,N)&lt;/font&gt;&lt;/span&gt;" style="text;strokeColor=none;fillColor=none;html=1;fontSize=24;fontStyle=1;verticalAlign=middle;align=center;" vertex="1" parent="1">
          <mxGeometry x="517" y="360" width="44" height="30" as="geometry" />
        </mxCell>
        <mxCell id="qshYgTY-a6CuxJiKTBsL-154" value="&lt;span style=&quot;font-weight: 400;&quot;&gt;&lt;font style=&quot;font-size: 10px;&quot;&gt;(0,N)&lt;/font&gt;&lt;/span&gt;" style="text;strokeColor=none;fillColor=none;html=1;fontSize=24;fontStyle=1;verticalAlign=middle;align=center;" vertex="1" parent="1">
          <mxGeometry x="328" y="410" width="44" height="30" as="geometry" />
        </mxCell>
        <mxCell id="qshYgTY-a6CuxJiKTBsL-155" value="&lt;span style=&quot;font-weight: 400;&quot;&gt;&lt;font style=&quot;font-size: 10px;&quot;&gt;(0,N)&lt;/font&gt;&lt;/span&gt;" style="text;strokeColor=none;fillColor=none;html=1;fontSize=24;fontStyle=1;verticalAlign=middle;align=center;" vertex="1" parent="1">
          <mxGeometry x="197" y="386" width="50" height="50" as="geometry" />
        </mxCell>
        <mxCell id="qshYgTY-a6CuxJiKTBsL-158" value="" style="ellipse;whiteSpace=wrap;html=1;aspect=fixed;fillColor=light-dark(#FFFFFF,#FFFFFF);strokeWidth=1;perimeterSpacing=0;" vertex="1" parent="1">
          <mxGeometry x="564" y="380" width="6" height="6" as="geometry" />
        </mxCell>
        <mxCell id="qshYgTY-a6CuxJiKTBsL-160" value="" style="ellipse;whiteSpace=wrap;html=1;aspect=fixed;fillColor=light-dark(#FFFFFF,#000000);strokeWidth=1;perimeterSpacing=0;" vertex="1" parent="1">
          <mxGeometry x="674" y="334" width="6" height="6" as="geometry" />
        </mxCell>
        <mxCell id="qshYgTY-a6CuxJiKTBsL-162" value="" style="ellipse;whiteSpace=wrap;html=1;aspect=fixed;fillColor=light-dark(#FFFFFF,#000000);strokeWidth=1;perimeterSpacing=0;" vertex="1" parent="1">
          <mxGeometry x="694" y="350" width="6" height="6" as="geometry" />
        </mxCell>
        <mxCell id="qshYgTY-a6CuxJiKTBsL-164" value="" style="ellipse;whiteSpace=wrap;html=1;aspect=fixed;fillColor=light-dark(#FFFFFF,#000000);strokeWidth=1;perimeterSpacing=0;" vertex="1" parent="1">
          <mxGeometry x="694" y="360" width="6" height="6" as="geometry" />
        </mxCell>
        <mxCell id="qshYgTY-a6CuxJiKTBsL-166" value="" style="ellipse;whiteSpace=wrap;html=1;aspect=fixed;fillColor=light-dark(#FFFFFF,#000000);strokeWidth=1;perimeterSpacing=0;" vertex="1" parent="1">
          <mxGeometry x="694" y="372" width="6" height="6" as="geometry" />
        </mxCell>
        <mxCell id="qshYgTY-a6CuxJiKTBsL-168" value="" style="ellipse;whiteSpace=wrap;html=1;aspect=fixed;fillColor=light-dark(#FFFFFF,#000000);strokeWidth=1;perimeterSpacing=0;" vertex="1" parent="1">
          <mxGeometry x="694" y="384" width="6" height="6" as="geometry" />
        </mxCell>
        <mxCell id="qshYgTY-a6CuxJiKTBsL-190" value="" style="ellipse;whiteSpace=wrap;html=1;aspect=fixed;fillColor=light-dark(#FFFFFF,#000000);strokeWidth=1;perimeterSpacing=0;" vertex="1" parent="1">
          <mxGeometry x="664" y="334" width="6" height="6" as="geometry" />
        </mxCell>
        <mxCell id="qshYgTY-a6CuxJiKTBsL-196" style="edgeStyle=orthogonalEdgeStyle;rounded=0;orthogonalLoop=1;jettySize=auto;html=1;endArrow=none;startFill=0;" edge="1" parent="1">
          <mxGeometry relative="1" as="geometry">
            <mxPoint x="666.95" y="350" as="targetPoint" />
            <mxPoint x="666.95" y="340" as="sourcePoint" />
            <Array as="points">
              <mxPoint x="666.95" y="340" />
            </Array>
          </mxGeometry>
        </mxCell>
        <mxCell id="qshYgTY-a6CuxJiKTBsL-198" style="edgeStyle=orthogonalEdgeStyle;rounded=0;orthogonalLoop=1;jettySize=auto;html=1;endArrow=none;startFill=0;" edge="1" parent="1">
          <mxGeometry relative="1" as="geometry">
            <mxPoint x="676.95" y="350" as="targetPoint" />
            <mxPoint x="676.95" y="340" as="sourcePoint" />
            <Array as="points">
              <mxPoint x="676.95" y="340" />
              <mxPoint x="676.95" y="340" />
            </Array>
          </mxGeometry>
        </mxCell>
        <mxCell id="qshYgTY-a6CuxJiKTBsL-201" style="edgeStyle=orthogonalEdgeStyle;rounded=0;orthogonalLoop=1;jettySize=auto;html=1;endArrow=none;startFill=0;exitX=0;exitY=0.5;exitDx=0;exitDy=0;" edge="1" parent="1" source="qshYgTY-a6CuxJiKTBsL-162">
          <mxGeometry relative="1" as="geometry">
            <mxPoint x="680" y="352.95" as="targetPoint" />
            <mxPoint x="690" y="352.95" as="sourcePoint" />
            <Array as="points" />
          </mxGeometry>
        </mxCell>
        <mxCell id="qshYgTY-a6CuxJiKTBsL-203" style="edgeStyle=orthogonalEdgeStyle;rounded=0;orthogonalLoop=1;jettySize=auto;html=1;endArrow=none;startFill=0;exitX=0;exitY=0.5;exitDx=0;exitDy=0;" edge="1" parent="1">
          <mxGeometry relative="1" as="geometry">
            <mxPoint x="680" y="362.95" as="targetPoint" />
            <mxPoint x="694" y="363" as="sourcePoint" />
            <Array as="points" />
          </mxGeometry>
        </mxCell>
        <mxCell id="qshYgTY-a6CuxJiKTBsL-204" style="edgeStyle=orthogonalEdgeStyle;rounded=0;orthogonalLoop=1;jettySize=auto;html=1;endArrow=none;startFill=0;exitX=0;exitY=0.5;exitDx=0;exitDy=0;" edge="1" parent="1">
          <mxGeometry relative="1" as="geometry">
            <mxPoint x="680" y="374.95" as="targetPoint" />
            <mxPoint x="694" y="375" as="sourcePoint" />
            <Array as="points" />
          </mxGeometry>
        </mxCell>
        <mxCell id="qshYgTY-a6CuxJiKTBsL-205" style="edgeStyle=orthogonalEdgeStyle;rounded=0;orthogonalLoop=1;jettySize=auto;html=1;endArrow=none;startFill=0;exitX=0;exitY=0.5;exitDx=0;exitDy=0;" edge="1" parent="1">
          <mxGeometry relative="1" as="geometry">
            <mxPoint x="680" y="386.95" as="targetPoint" />
            <mxPoint x="694" y="387" as="sourcePoint" />
            <Array as="points" />
          </mxGeometry>
        </mxCell>
        <mxCell id="qshYgTY-a6CuxJiKTBsL-206" style="edgeStyle=orthogonalEdgeStyle;rounded=0;orthogonalLoop=1;jettySize=auto;html=1;endArrow=none;startFill=0;exitX=0;exitY=0.5;exitDx=0;exitDy=0;" edge="1" parent="1">
          <mxGeometry relative="1" as="geometry">
            <mxPoint x="566" y="382.95" as="targetPoint" />
            <mxPoint x="580" y="383" as="sourcePoint" />
            <Array as="points" />
          </mxGeometry>
        </mxCell>
        <mxCell id="qshYgTY-a6CuxJiKTBsL-213" value="&lt;font style=&quot;font-weight: normal; font-size: 7px;&quot;&gt;ID&lt;/font&gt;" style="text;strokeColor=none;fillColor=none;html=1;fontSize=24;fontStyle=1;verticalAlign=middle;align=center;" vertex="1" parent="1">
          <mxGeometry x="555" y="382" width="24" height="10" as="geometry" />
        </mxCell>
        <mxCell id="qshYgTY-a6CuxJiKTBsL-215" value="&lt;font style=&quot;font-weight: normal; font-size: 7px;&quot;&gt;first name&lt;/font&gt;" style="text;strokeColor=none;fillColor=none;html=1;fontSize=24;fontStyle=1;verticalAlign=middle;align=center;" vertex="1" parent="1">
          <mxGeometry x="650" y="310" width="34" height="20" as="geometry" />
        </mxCell>
        <mxCell id="qshYgTY-a6CuxJiKTBsL-216" value="&lt;font style=&quot;font-weight: normal; font-size: 7px;&quot;&gt;last name&lt;/font&gt;" style="text;strokeColor=none;fillColor=none;html=1;fontSize=24;fontStyle=1;verticalAlign=middle;align=center;" vertex="1" parent="1">
          <mxGeometry x="684" y="320" width="34" height="20" as="geometry" />
        </mxCell>
        <mxCell id="qshYgTY-a6CuxJiKTBsL-218" value="&lt;font style=&quot;font-weight: normal; font-size: 7px;&quot;&gt;role&lt;/font&gt;" style="text;strokeColor=none;fillColor=none;html=1;fontSize=24;fontStyle=1;verticalAlign=middle;align=center;" vertex="1" parent="1">
          <mxGeometry x="694" y="336" width="34" height="20" as="geometry" />
        </mxCell>
        <mxCell id="qshYgTY-a6CuxJiKTBsL-219" value="&lt;font style=&quot;font-weight: normal; font-size: 7px;&quot;&gt;username&lt;/font&gt;" style="text;strokeColor=none;fillColor=none;html=1;fontSize=24;fontStyle=1;verticalAlign=middle;align=center;" vertex="1" parent="1">
          <mxGeometry x="700" y="346" width="34" height="20" as="geometry" />
        </mxCell>
        <mxCell id="qshYgTY-a6CuxJiKTBsL-220" value="&lt;font style=&quot;font-weight: normal; font-size: 7px;&quot;&gt;email&lt;/font&gt;" style="text;strokeColor=none;fillColor=none;html=1;fontSize=24;fontStyle=1;verticalAlign=middle;align=center;" vertex="1" parent="1">
          <mxGeometry x="694" y="360" width="34" height="20" as="geometry" />
        </mxCell>
        <mxCell id="qshYgTY-a6CuxJiKTBsL-221" value="&lt;font style=&quot;font-weight: normal; font-size: 7px;&quot;&gt;hash&lt;/font&gt;" style="text;strokeColor=none;fillColor=none;html=1;fontSize=24;fontStyle=1;verticalAlign=middle;align=center;" vertex="1" parent="1">
          <mxGeometry x="694" y="376" width="34" height="10" as="geometry" />
        </mxCell>
        <mxCell id="qshYgTY-a6CuxJiKTBsL-222" value="" style="ellipse;whiteSpace=wrap;html=1;aspect=fixed;fillColor=light-dark(#FFFFFF,#FFFFFF);strokeWidth=1;perimeterSpacing=0;" vertex="1" parent="1">
          <mxGeometry x="156" y="680" width="6" height="6" as="geometry" />
        </mxCell>
        <mxCell id="qshYgTY-a6CuxJiKTBsL-223" value="" style="ellipse;whiteSpace=wrap;html=1;aspect=fixed;fillColor=light-dark(#FFFFFF,#000000);strokeWidth=1;perimeterSpacing=0;" vertex="1" parent="1">
          <mxGeometry x="170" y="680" width="6" height="6" as="geometry" />
        </mxCell>
        <mxCell id="qshYgTY-a6CuxJiKTBsL-224" value="" style="ellipse;whiteSpace=wrap;html=1;aspect=fixed;fillColor=light-dark(#FFFFFF,#000000);strokeWidth=1;perimeterSpacing=0;" vertex="1" parent="1">
          <mxGeometry x="186" y="680" width="6" height="6" as="geometry" />
        </mxCell>
        <mxCell id="qshYgTY-a6CuxJiKTBsL-225" value="" style="ellipse;whiteSpace=wrap;html=1;aspect=fixed;fillColor=light-dark(#FFFFFF,#000000);strokeWidth=1;perimeterSpacing=0;" vertex="1" parent="1">
          <mxGeometry x="204" y="680" width="6" height="6" as="geometry" />
        </mxCell>
        <mxCell id="qshYgTY-a6CuxJiKTBsL-226" value="" style="ellipse;whiteSpace=wrap;html=1;aspect=fixed;fillColor=light-dark(#FFFFFF,#000000);strokeWidth=1;perimeterSpacing=0;" vertex="1" parent="1">
          <mxGeometry x="219" y="680" width="6" height="6" as="geometry" />
        </mxCell>
        <mxCell id="qshYgTY-a6CuxJiKTBsL-228" style="edgeStyle=orthogonalEdgeStyle;rounded=0;orthogonalLoop=1;jettySize=auto;html=1;endArrow=none;startFill=0;" edge="1" parent="1">
          <mxGeometry relative="1" as="geometry">
            <mxPoint x="158.93999999999997" y="680" as="targetPoint" />
            <mxPoint x="159.04" y="670" as="sourcePoint" />
            <Array as="points">
              <mxPoint x="158.93999999999997" y="660" />
              <mxPoint x="158.93999999999997" y="660" />
            </Array>
          </mxGeometry>
        </mxCell>
        <mxCell id="qshYgTY-a6CuxJiKTBsL-230" style="edgeStyle=orthogonalEdgeStyle;rounded=0;orthogonalLoop=1;jettySize=auto;html=1;endArrow=none;startFill=0;" edge="1" parent="1">
          <mxGeometry relative="1" as="geometry">
            <mxPoint x="172.95" y="680" as="targetPoint" />
            <mxPoint x="173.05" y="670" as="sourcePoint" />
            <Array as="points">
              <mxPoint x="172.95" y="660" />
              <mxPoint x="172.95" y="660" />
            </Array>
          </mxGeometry>
        </mxCell>
        <mxCell id="qshYgTY-a6CuxJiKTBsL-231" style="edgeStyle=orthogonalEdgeStyle;rounded=0;orthogonalLoop=1;jettySize=auto;html=1;endArrow=none;startFill=0;" edge="1" parent="1">
          <mxGeometry relative="1" as="geometry">
            <mxPoint x="188.95" y="680" as="targetPoint" />
            <mxPoint x="189.05" y="670" as="sourcePoint" />
            <Array as="points">
              <mxPoint x="188.95" y="660" />
              <mxPoint x="188.95" y="660" />
            </Array>
          </mxGeometry>
        </mxCell>
        <mxCell id="qshYgTY-a6CuxJiKTBsL-232" style="edgeStyle=orthogonalEdgeStyle;rounded=0;orthogonalLoop=1;jettySize=auto;html=1;endArrow=none;startFill=0;" edge="1" parent="1">
          <mxGeometry relative="1" as="geometry">
            <mxPoint x="206.95" y="680" as="targetPoint" />
            <mxPoint x="207.05" y="670" as="sourcePoint" />
            <Array as="points">
              <mxPoint x="206.95" y="660" />
              <mxPoint x="206.95" y="660" />
            </Array>
          </mxGeometry>
        </mxCell>
        <mxCell id="qshYgTY-a6CuxJiKTBsL-233" style="edgeStyle=orthogonalEdgeStyle;rounded=0;orthogonalLoop=1;jettySize=auto;html=1;endArrow=none;startFill=0;" edge="1" parent="1">
          <mxGeometry relative="1" as="geometry">
            <mxPoint x="221.95" y="680" as="targetPoint" />
            <mxPoint x="222" y="670" as="sourcePoint" />
            <Array as="points">
              <mxPoint x="221.95" y="660" />
              <mxPoint x="221.95" y="660" />
            </Array>
          </mxGeometry>
        </mxCell>
        <mxCell id="qshYgTY-a6CuxJiKTBsL-235" value="&lt;font style=&quot;font-weight: normal; font-size: 8px;&quot;&gt;ID&lt;/font&gt;" style="text;strokeColor=none;fillColor=none;html=1;fontSize=24;fontStyle=1;verticalAlign=middle;align=center;" vertex="1" parent="1">
          <mxGeometry x="134" y="670" width="22" height="16" as="geometry" />
        </mxCell>
        <mxCell id="qshYgTY-a6CuxJiKTBsL-236" value="&lt;font style=&quot;font-weight: normal; font-size: 8px;&quot;&gt;type&lt;/font&gt;" style="text;strokeColor=none;fillColor=none;html=1;fontSize=24;fontStyle=1;verticalAlign=middle;align=center;" vertex="1" parent="1">
          <mxGeometry x="156" y="682" width="24" height="16" as="geometry" />
        </mxCell>
        <mxCell id="qshYgTY-a6CuxJiKTBsL-237" value="&lt;font style=&quot;font-weight: normal; font-size: 8px;&quot;&gt;desc&lt;/font&gt;" style="text;strokeColor=none;fillColor=none;html=1;fontSize=24;fontStyle=1;verticalAlign=middle;align=center;" vertex="1" parent="1">
          <mxGeometry x="172" y="685" width="34" height="10" as="geometry" />
        </mxCell>
        <mxCell id="qshYgTY-a6CuxJiKTBsL-244" value="&lt;font style=&quot;font-weight: normal; font-size: 8px;&quot;&gt;url&lt;/font&gt;" style="text;strokeColor=none;fillColor=none;html=1;fontSize=24;fontStyle=1;verticalAlign=middle;align=center;" vertex="1" parent="1">
          <mxGeometry x="197" y="682" width="20" height="15" as="geometry" />
        </mxCell>
        <mxCell id="qshYgTY-a6CuxJiKTBsL-248" value="&lt;font style=&quot;font-weight: normal; font-size: 8px;&quot;&gt;title&lt;/font&gt;" style="text;strokeColor=none;fillColor=none;html=1;fontSize=24;fontStyle=1;verticalAlign=middle;align=center;" vertex="1" parent="1">
          <mxGeometry x="210" y="685" width="24" height="10" as="geometry" />
        </mxCell>
        <mxCell id="qshYgTY-a6CuxJiKTBsL-249" style="edgeStyle=orthogonalEdgeStyle;rounded=0;orthogonalLoop=1;jettySize=auto;html=1;endArrow=none;startFill=0;" edge="1" parent="1">
          <mxGeometry relative="1" as="geometry">
            <mxPoint x="230.92999999999998" y="600.99" as="targetPoint" />
            <mxPoint x="231.03" y="590.99" as="sourcePoint" />
            <Array as="points">
              <mxPoint x="230.92999999999998" y="580.99" />
              <mxPoint x="230.92999999999998" y="580.99" />
            </Array>
          </mxGeometry>
        </mxCell>
        <mxCell id="qshYgTY-a6CuxJiKTBsL-250" value="" style="ellipse;whiteSpace=wrap;html=1;aspect=fixed;fillColor=light-dark(#FFFFFF,#000000);" vertex="1" parent="1">
          <mxGeometry x="228" y="575" width="6" height="6" as="geometry" />
        </mxCell>
        <mxCell id="qshYgTY-a6CuxJiKTBsL-252" value="" style="endArrow=none;html=1;rounded=0;" edge="1" parent="1">
          <mxGeometry width="50" height="50" relative="1" as="geometry">
            <mxPoint x="188" y="585" as="sourcePoint" />
            <mxPoint x="240" y="585" as="targetPoint" />
            <Array as="points">
              <mxPoint x="204" y="585" />
            </Array>
          </mxGeometry>
        </mxCell>
        <mxCell id="qshYgTY-a6CuxJiKTBsL-254" value="" style="ellipse;whiteSpace=wrap;html=1;aspect=fixed;fillColor=light-dark(#FFFFFF,#FFFFFF);strokeWidth=1;perimeterSpacing=0;" vertex="1" parent="1">
          <mxGeometry x="238" y="582" width="6" height="6" as="geometry" />
        </mxCell>
        <mxCell id="qshYgTY-a6CuxJiKTBsL-256" value="&lt;font style=&quot;font-weight: normal; font-size: 8px;&quot;&gt;course_ID&lt;/font&gt;" style="text;strokeColor=none;fillColor=none;html=1;fontSize=24;fontStyle=1;verticalAlign=middle;align=center;" vertex="1" parent="1">
          <mxGeometry x="225" y="557" width="24" height="16" as="geometry" />
        </mxCell>
        <mxCell id="qshYgTY-a6CuxJiKTBsL-258" value="" style="ellipse;whiteSpace=wrap;html=1;aspect=fixed;fillColor=light-dark(#FFFFFF,#000000);strokeWidth=1;perimeterSpacing=0;" vertex="1" parent="1">
          <mxGeometry x="116" y="346" width="6" height="6" as="geometry" />
        </mxCell>
        <mxCell id="qshYgTY-a6CuxJiKTBsL-259" value="" style="ellipse;whiteSpace=wrap;html=1;aspect=fixed;fillColor=light-dark(#FFFFFF,#000000);strokeWidth=1;perimeterSpacing=0;" vertex="1" parent="1">
          <mxGeometry x="116" y="356" width="6" height="6" as="geometry" />
        </mxCell>
        <mxCell id="qshYgTY-a6CuxJiKTBsL-260" value="" style="ellipse;whiteSpace=wrap;html=1;aspect=fixed;fillColor=light-dark(#FFFFFF,#000000);strokeWidth=1;perimeterSpacing=0;" vertex="1" parent="1">
          <mxGeometry x="116" y="368" width="6" height="6" as="geometry" />
        </mxCell>
        <mxCell id="qshYgTY-a6CuxJiKTBsL-261" value="" style="ellipse;whiteSpace=wrap;html=1;aspect=fixed;fillColor=light-dark(#FFFFFF,#000000);strokeWidth=1;perimeterSpacing=0;" vertex="1" parent="1">
          <mxGeometry x="116" y="380" width="6" height="6" as="geometry" />
        </mxCell>
        <mxCell id="qshYgTY-a6CuxJiKTBsL-262" value="&lt;font style=&quot;font-weight: normal; font-size: 7px;&quot;&gt;title&lt;/font&gt;" style="text;strokeColor=none;fillColor=none;html=1;fontSize=24;fontStyle=1;verticalAlign=middle;align=center;" vertex="1" parent="1">
          <mxGeometry x="84" y="362" width="26" height="6" as="geometry" />
        </mxCell>
        <mxCell id="qshYgTY-a6CuxJiKTBsL-263" value="&lt;font style=&quot;font-weight: normal; font-size: 7px;&quot;&gt;desc&lt;/font&gt;" style="text;strokeColor=none;fillColor=none;html=1;fontSize=24;fontStyle=1;verticalAlign=middle;align=center;" vertex="1" parent="1">
          <mxGeometry x="85" y="375" width="24" height="5" as="geometry" />
        </mxCell>
        <mxCell id="qshYgTY-a6CuxJiKTBsL-264" style="edgeStyle=orthogonalEdgeStyle;rounded=0;orthogonalLoop=1;jettySize=auto;html=1;exitX=0.5;exitY=1;exitDx=0;exitDy=0;" edge="1" parent="1" source="qshYgTY-a6CuxJiKTBsL-263" target="qshYgTY-a6CuxJiKTBsL-263">
          <mxGeometry relative="1" as="geometry" />
        </mxCell>
        <mxCell id="qshYgTY-a6CuxJiKTBsL-265" value="&lt;font style=&quot;font-weight: normal; font-size: 7px;&quot;&gt;student_ids&lt;/font&gt;" style="text;strokeColor=none;fillColor=none;html=1;fontSize=24;fontStyle=1;verticalAlign=middle;align=center;" vertex="1" parent="1">
          <mxGeometry x="80" y="352.5" width="24" height="1" as="geometry" />
        </mxCell>
        <mxCell id="qshYgTY-a6CuxJiKTBsL-266" value="&lt;font style=&quot;font-weight: normal; font-size: 7px;&quot;&gt;prof_name&lt;/font&gt;" style="text;strokeColor=none;fillColor=none;html=1;fontSize=24;fontStyle=1;verticalAlign=middle;align=center;" vertex="1" parent="1">
          <mxGeometry x="85" y="336" width="24" height="12.5" as="geometry" />
        </mxCell>
        <mxCell id="qshYgTY-a6CuxJiKTBsL-269" value="" style="ellipse;whiteSpace=wrap;html=1;aspect=fixed;fillColor=light-dark(#FFFFFF,#000000);strokeWidth=1;perimeterSpacing=0;" vertex="1" parent="1">
          <mxGeometry x="284" y="346" width="6" height="6" as="geometry" />
        </mxCell>
        <mxCell id="qshYgTY-a6CuxJiKTBsL-270" style="edgeStyle=orthogonalEdgeStyle;rounded=0;orthogonalLoop=1;jettySize=auto;html=1;endArrow=none;startFill=0;exitX=0;exitY=0.5;exitDx=0;exitDy=0;" edge="1" parent="1" source="qshYgTY-a6CuxJiKTBsL-269">
          <mxGeometry relative="1" as="geometry">
            <mxPoint x="260" y="348.5" as="targetPoint" />
            <mxPoint x="274" y="348.55" as="sourcePoint" />
            <Array as="points" />
          </mxGeometry>
        </mxCell>
        <mxCell id="qshYgTY-a6CuxJiKTBsL-271" style="edgeStyle=orthogonalEdgeStyle;rounded=0;orthogonalLoop=1;jettySize=auto;html=1;endArrow=none;startFill=0;exitX=0.002;exitY=0.139;exitDx=0;exitDy=0;exitPerimeter=0;" edge="1" parent="1" source="qshYgTY-a6CuxJiKTBsL-10">
          <mxGeometry relative="1" as="geometry">
            <mxPoint x="122" y="348.5" as="targetPoint" />
            <mxPoint x="136" y="348.55" as="sourcePoint" />
            <Array as="points" />
          </mxGeometry>
        </mxCell>
        <mxCell id="qshYgTY-a6CuxJiKTBsL-272" style="edgeStyle=orthogonalEdgeStyle;rounded=0;orthogonalLoop=1;jettySize=auto;html=1;endArrow=none;startFill=0;exitX=0.002;exitY=0.139;exitDx=0;exitDy=0;exitPerimeter=0;" edge="1" parent="1">
          <mxGeometry relative="1" as="geometry">
            <mxPoint x="122" y="359.25" as="targetPoint" />
            <mxPoint x="140" y="358.75" as="sourcePoint" />
            <Array as="points" />
          </mxGeometry>
        </mxCell>
        <mxCell id="qshYgTY-a6CuxJiKTBsL-273" style="edgeStyle=orthogonalEdgeStyle;rounded=0;orthogonalLoop=1;jettySize=auto;html=1;endArrow=none;startFill=0;exitX=0.002;exitY=0.139;exitDx=0;exitDy=0;exitPerimeter=0;" edge="1" parent="1">
          <mxGeometry relative="1" as="geometry">
            <mxPoint x="122" y="371.25" as="targetPoint" />
            <mxPoint x="140" y="370.75" as="sourcePoint" />
            <Array as="points" />
          </mxGeometry>
        </mxCell>
        <mxCell id="qshYgTY-a6CuxJiKTBsL-274" style="edgeStyle=orthogonalEdgeStyle;rounded=0;orthogonalLoop=1;jettySize=auto;html=1;endArrow=none;startFill=0;exitX=0.002;exitY=0.139;exitDx=0;exitDy=0;exitPerimeter=0;" edge="1" parent="1">
          <mxGeometry relative="1" as="geometry">
            <mxPoint x="122" y="383.25" as="targetPoint" />
            <mxPoint x="140" y="382.75" as="sourcePoint" />
            <Array as="points" />
          </mxGeometry>
        </mxCell>
        <mxCell id="qshYgTY-a6CuxJiKTBsL-275" style="edgeStyle=orthogonalEdgeStyle;rounded=0;orthogonalLoop=1;jettySize=auto;html=1;endArrow=none;startFill=0;" edge="1" parent="1">
          <mxGeometry relative="1" as="geometry">
            <mxPoint x="270.87" y="374" as="targetPoint" />
            <mxPoint x="270.87" y="344" as="sourcePoint" />
            <Array as="points">
              <mxPoint x="270.77" y="344" />
              <mxPoint x="270.77" y="344" />
            </Array>
          </mxGeometry>
        </mxCell>
        <mxCell id="qshYgTY-a6CuxJiKTBsL-276" value="" style="ellipse;whiteSpace=wrap;html=1;aspect=fixed;fillColor=light-dark(#FFFFFF,#FFFFFF);" vertex="1" parent="1">
          <mxGeometry x="268" y="374" width="6" height="6" as="geometry" />
        </mxCell>
        <mxCell id="qshYgTY-a6CuxJiKTBsL-278" value="&lt;span style=&quot;font-weight: 400;&quot;&gt;&lt;font style=&quot;font-size: 10px;&quot;&gt;(1,1)&lt;/font&gt;&lt;/span&gt;" style="text;strokeColor=none;fillColor=none;html=1;fontSize=24;fontStyle=1;verticalAlign=middle;align=center;" vertex="1" parent="1">
          <mxGeometry x="300" y="343" width="20" height="20" as="geometry" />
        </mxCell>
        <mxCell id="qshYgTY-a6CuxJiKTBsL-280" style="edgeStyle=orthogonalEdgeStyle;rounded=0;orthogonalLoop=1;jettySize=auto;html=1;endArrow=none;startFill=0;" edge="1" parent="1">
          <mxGeometry relative="1" as="geometry">
            <mxPoint x="158.86999999999998" y="340" as="targetPoint" />
            <mxPoint x="158.92" y="330" as="sourcePoint" />
            <Array as="points">
              <mxPoint x="158.86999999999998" y="320" />
              <mxPoint x="158.86999999999998" y="320" />
            </Array>
          </mxGeometry>
        </mxCell>
        <mxCell id="qshYgTY-a6CuxJiKTBsL-281" value="" style="ellipse;whiteSpace=wrap;html=1;aspect=fixed;fillColor=light-dark(#FFFFFF, #ffffff);strokeWidth=1;perimeterSpacing=0;strokeColor=default;" vertex="1" parent="1">
          <mxGeometry x="156" y="314" width="6" height="6" as="geometry" />
        </mxCell>
        <mxCell id="qshYgTY-a6CuxJiKTBsL-282" value="&lt;font style=&quot;font-size: 6px;&quot;&gt;ID&lt;/font&gt;" style="text;strokeColor=none;align=center;fillColor=none;html=1;verticalAlign=middle;whiteSpace=wrap;rounded=0;" vertex="1" parent="1">
          <mxGeometry x="140" y="306" width="19" height="14" as="geometry" />
        </mxCell>
        <mxCell id="qshYgTY-a6CuxJiKTBsL-283" value="&lt;font style=&quot;font-size: 6px;&quot;&gt;prof_id&lt;/font&gt;" style="text;strokeColor=none;align=center;fillColor=none;html=1;verticalAlign=middle;whiteSpace=wrap;rounded=0;" vertex="1" parent="1">
          <mxGeometry x="281" y="332" width="19" height="14" as="geometry" />
        </mxCell>
        <mxCell id="qshYgTY-a6CuxJiKTBsL-285" value="" style="ellipse;whiteSpace=wrap;html=1;aspect=fixed;fillColor=light-dark(#FFFFFF,#FFFFFF);strokeWidth=1;perimeterSpacing=0;" vertex="1" parent="1">
          <mxGeometry x="386" y="90" width="6" height="6" as="geometry" />
        </mxCell>
        <mxCell id="qshYgTY-a6CuxJiKTBsL-286" value="" style="ellipse;whiteSpace=wrap;html=1;aspect=fixed;fillColor=light-dark(#FFFFFF,#000000);strokeWidth=1;perimeterSpacing=0;" vertex="1" parent="1">
          <mxGeometry x="400" y="90" width="6" height="6" as="geometry" />
        </mxCell>
        <mxCell id="qshYgTY-a6CuxJiKTBsL-287" value="" style="ellipse;whiteSpace=wrap;html=1;aspect=fixed;fillColor=light-dark(#FFFFFF,#000000);strokeWidth=1;perimeterSpacing=0;" vertex="1" parent="1">
          <mxGeometry x="416" y="90" width="6" height="6" as="geometry" />
        </mxCell>
        <mxCell id="qshYgTY-a6CuxJiKTBsL-288" value="" style="ellipse;whiteSpace=wrap;html=1;aspect=fixed;fillColor=light-dark(#FFFFFF,#000000);strokeWidth=1;perimeterSpacing=0;" vertex="1" parent="1">
          <mxGeometry x="434" y="90" width="6" height="6" as="geometry" />
        </mxCell>
        <mxCell id="qshYgTY-a6CuxJiKTBsL-289" value="" style="ellipse;whiteSpace=wrap;html=1;aspect=fixed;fillColor=light-dark(#FFFFFF,#000000);strokeWidth=1;perimeterSpacing=0;" vertex="1" parent="1">
          <mxGeometry x="452" y="90" width="6" height="6" as="geometry" />
        </mxCell>
        <mxCell id="qshYgTY-a6CuxJiKTBsL-290" value="" style="ellipse;whiteSpace=wrap;html=1;aspect=fixed;fillColor=light-dark(#FFFFFF,#000000);strokeWidth=1;perimeterSpacing=0;" vertex="1" parent="1">
          <mxGeometry x="468" y="90" width="6" height="6" as="geometry" />
        </mxCell>
        <mxCell id="qshYgTY-a6CuxJiKTBsL-291" value="&lt;font style=&quot;font-size: 6px;&quot;&gt;ID&lt;/font&gt;" style="text;strokeColor=none;align=center;fillColor=none;html=1;verticalAlign=middle;whiteSpace=wrap;rounded=0;" vertex="1" parent="1">
          <mxGeometry x="379.5" y="76" width="19" height="14" as="geometry" />
        </mxCell>
        <mxCell id="qshYgTY-a6CuxJiKTBsL-293" value="&lt;font style=&quot;font-size: 6px;&quot;&gt;title&lt;/font&gt;" style="text;strokeColor=none;align=center;fillColor=none;html=1;verticalAlign=middle;whiteSpace=wrap;rounded=0;" vertex="1" parent="1">
          <mxGeometry x="393.5" y="76" width="19" height="14" as="geometry" />
        </mxCell>
        <mxCell id="qshYgTY-a6CuxJiKTBsL-294" value="&lt;font style=&quot;font-size: 6px;&quot;&gt;desc&lt;/font&gt;" style="text;strokeColor=none;align=center;fillColor=none;html=1;verticalAlign=middle;whiteSpace=wrap;rounded=0;" vertex="1" parent="1">
          <mxGeometry x="409.5" y="76" width="19" height="14" as="geometry" />
        </mxCell>
        <mxCell id="qshYgTY-a6CuxJiKTBsL-295" value="&lt;font style=&quot;font-size: 6px;&quot;&gt;url&lt;/font&gt;" style="text;strokeColor=none;align=center;fillColor=none;html=1;verticalAlign=middle;whiteSpace=wrap;rounded=0;" vertex="1" parent="1">
          <mxGeometry x="425.5" y="76" width="19" height="14" as="geometry" />
        </mxCell>
        <mxCell id="qshYgTY-a6CuxJiKTBsL-298" value="&lt;span style=&quot;font-size: 6px;&quot;&gt;type&lt;/span&gt;" style="text;strokeColor=none;align=center;fillColor=none;html=1;verticalAlign=middle;whiteSpace=wrap;rounded=0;" vertex="1" parent="1">
          <mxGeometry x="445.5" y="76" width="19" height="14" as="geometry" />
        </mxCell>
        <mxCell id="qshYgTY-a6CuxJiKTBsL-299" value="&lt;font style=&quot;font-size: 6px;&quot;&gt;tag&lt;/font&gt;" style="text;strokeColor=none;align=center;fillColor=none;html=1;verticalAlign=middle;whiteSpace=wrap;rounded=0;" vertex="1" parent="1">
          <mxGeometry x="461.5" y="76" width="19" height="14" as="geometry" />
        </mxCell>
        <mxCell id="qshYgTY-a6CuxJiKTBsL-300" style="edgeStyle=orthogonalEdgeStyle;rounded=0;orthogonalLoop=1;jettySize=auto;html=1;endArrow=none;startFill=0;" edge="1" parent="1">
          <mxGeometry relative="1" as="geometry">
            <mxPoint x="388.91999999999996" y="110" as="targetPoint" />
            <mxPoint x="389.02" y="100" as="sourcePoint" />
            <Array as="points">
              <mxPoint x="388.91999999999996" y="90" />
              <mxPoint x="388.91999999999996" y="90" />
            </Array>
          </mxGeometry>
        </mxCell>
        <mxCell id="qshYgTY-a6CuxJiKTBsL-301" style="edgeStyle=orthogonalEdgeStyle;rounded=0;orthogonalLoop=1;jettySize=auto;html=1;endArrow=none;startFill=0;" edge="1" parent="1">
          <mxGeometry relative="1" as="geometry">
            <mxPoint x="403" y="101" as="targetPoint" />
            <mxPoint x="403" y="110" as="sourcePoint" />
            <Array as="points">
              <mxPoint x="402.85" y="95.99" />
              <mxPoint x="402.85" y="95.99" />
            </Array>
          </mxGeometry>
        </mxCell>
        <mxCell id="qshYgTY-a6CuxJiKTBsL-302" style="edgeStyle=orthogonalEdgeStyle;rounded=0;orthogonalLoop=1;jettySize=auto;html=1;endArrow=none;startFill=0;" edge="1" parent="1">
          <mxGeometry relative="1" as="geometry">
            <mxPoint x="418.92" y="101" as="targetPoint" />
            <mxPoint x="418.92" y="110" as="sourcePoint" />
            <Array as="points">
              <mxPoint x="418.77000000000004" y="95.99" />
              <mxPoint x="418.77000000000004" y="95.99" />
            </Array>
          </mxGeometry>
        </mxCell>
        <mxCell id="qshYgTY-a6CuxJiKTBsL-303" style="edgeStyle=orthogonalEdgeStyle;rounded=0;orthogonalLoop=1;jettySize=auto;html=1;endArrow=none;startFill=0;" edge="1" parent="1">
          <mxGeometry relative="1" as="geometry">
            <mxPoint x="436.91999999999996" y="101.01" as="targetPoint" />
            <mxPoint x="436.91999999999996" y="110.01" as="sourcePoint" />
            <Array as="points">
              <mxPoint x="436.77" y="96" />
              <mxPoint x="436.77" y="96" />
            </Array>
          </mxGeometry>
        </mxCell>
        <mxCell id="qshYgTY-a6CuxJiKTBsL-304" style="edgeStyle=orthogonalEdgeStyle;rounded=0;orthogonalLoop=1;jettySize=auto;html=1;endArrow=none;startFill=0;" edge="1" parent="1">
          <mxGeometry relative="1" as="geometry">
            <mxPoint x="454.92" y="101" as="targetPoint" />
            <mxPoint x="454.92" y="110" as="sourcePoint" />
            <Array as="points">
              <mxPoint x="454.77000000000004" y="95.99" />
              <mxPoint x="454.77000000000004" y="95.99" />
            </Array>
          </mxGeometry>
        </mxCell>
        <mxCell id="qshYgTY-a6CuxJiKTBsL-305" style="edgeStyle=orthogonalEdgeStyle;rounded=0;orthogonalLoop=1;jettySize=auto;html=1;endArrow=none;startFill=0;" edge="1" parent="1">
          <mxGeometry relative="1" as="geometry">
            <mxPoint x="470.92" y="101" as="targetPoint" />
            <mxPoint x="470.92" y="110" as="sourcePoint" />
            <Array as="points">
              <mxPoint x="470.77000000000004" y="95.99" />
              <mxPoint x="470.77000000000004" y="95.99" />
            </Array>
          </mxGeometry>
        </mxCell>
        <mxCell id="qshYgTY-a6CuxJiKTBsL-306" style="edgeStyle=orthogonalEdgeStyle;rounded=0;orthogonalLoop=1;jettySize=auto;html=1;endArrow=none;startFill=0;exitX=0;exitY=0.5;exitDx=0;exitDy=0;" edge="1" parent="1">
          <mxGeometry relative="1" as="geometry">
            <mxPoint x="480" y="120" as="targetPoint" />
            <mxPoint x="504" y="120.5" as="sourcePoint" />
            <Array as="points" />
          </mxGeometry>
        </mxCell>
        <mxCell id="qshYgTY-a6CuxJiKTBsL-307" style="edgeStyle=orthogonalEdgeStyle;rounded=0;orthogonalLoop=1;jettySize=auto;html=1;endArrow=none;startFill=0;exitX=0;exitY=0.5;exitDx=0;exitDy=0;" edge="1" parent="1">
          <mxGeometry relative="1" as="geometry">
            <mxPoint x="356" y="119.5" as="targetPoint" />
            <mxPoint x="380" y="120" as="sourcePoint" />
            <Array as="points" />
          </mxGeometry>
        </mxCell>
        <mxCell id="qshYgTY-a6CuxJiKTBsL-308" value="" style="ellipse;whiteSpace=wrap;html=1;aspect=fixed;fillColor=light-dark(#FFFFFF,#000000);strokeWidth=1;perimeterSpacing=0;" vertex="1" parent="1">
          <mxGeometry x="351" y="117" width="6" height="6" as="geometry" />
        </mxCell>
        <mxCell id="qshYgTY-a6CuxJiKTBsL-309" value="" style="ellipse;whiteSpace=wrap;html=1;aspect=fixed;fillColor=light-dark(#FFFFFF,#000000);strokeWidth=1;perimeterSpacing=0;" vertex="1" parent="1">
          <mxGeometry x="500" y="117" width="6" height="6" as="geometry" />
        </mxCell>
        <mxCell id="qshYgTY-a6CuxJiKTBsL-310" style="edgeStyle=orthogonalEdgeStyle;rounded=0;orthogonalLoop=1;jettySize=auto;html=1;endArrow=none;startFill=0;" edge="1" parent="1">
          <mxGeometry relative="1" as="geometry">
            <mxPoint x="366.92" y="140" as="targetPoint" />
            <mxPoint x="366.92" y="110" as="sourcePoint" />
            <Array as="points">
              <mxPoint x="366.82" y="110" />
              <mxPoint x="366.82" y="110" />
            </Array>
          </mxGeometry>
        </mxCell>
        <mxCell id="qshYgTY-a6CuxJiKTBsL-311" style="edgeStyle=orthogonalEdgeStyle;rounded=0;orthogonalLoop=1;jettySize=auto;html=1;endArrow=none;startFill=0;" edge="1" parent="1">
          <mxGeometry relative="1" as="geometry">
            <mxPoint x="488.92" y="140" as="targetPoint" />
            <mxPoint x="488.92" y="110" as="sourcePoint" />
            <Array as="points">
              <mxPoint x="488.82" y="110" />
              <mxPoint x="488.82" y="110" />
            </Array>
          </mxGeometry>
        </mxCell>
        <mxCell id="qshYgTY-a6CuxJiKTBsL-314" value="" style="ellipse;whiteSpace=wrap;html=1;aspect=fixed;fillColor=light-dark(#FFFFFF,#FFFFFF);strokeWidth=1;perimeterSpacing=0;" vertex="1" parent="1">
          <mxGeometry x="364" y="140" width="6" height="6" as="geometry" />
        </mxCell>
        <mxCell id="qshYgTY-a6CuxJiKTBsL-315" value="" style="ellipse;whiteSpace=wrap;html=1;aspect=fixed;fillColor=light-dark(#FFFFFF,#FFFFFF);strokeWidth=1;perimeterSpacing=0;" vertex="1" parent="1">
          <mxGeometry x="486" y="140" width="6" height="6" as="geometry" />
        </mxCell>
        <mxCell id="qshYgTY-a6CuxJiKTBsL-317" value="&lt;font style=&quot;font-size: 6px;&quot;&gt;stud_ID&lt;/font&gt;" style="text;strokeColor=none;align=center;fillColor=none;html=1;verticalAlign=middle;whiteSpace=wrap;rounded=0;" vertex="1" parent="1">
          <mxGeometry x="495" y="103" width="19" height="14" as="geometry" />
        </mxCell>
        <mxCell id="qshYgTY-a6CuxJiKTBsL-318" value="&lt;font style=&quot;font-size: 6px;&quot;&gt;course_ID&lt;/font&gt;" style="text;strokeColor=none;align=center;fillColor=none;html=1;verticalAlign=middle;whiteSpace=wrap;rounded=0;" vertex="1" parent="1">
          <mxGeometry x="340" y="103" width="19" height="14" as="geometry" />
        </mxCell>
        <mxCell id="qshYgTY-a6CuxJiKTBsL-319" value="&lt;span style=&quot;font-weight: 400;&quot;&gt;&lt;font style=&quot;font-size: 9px;&quot;&gt;(1,1)&lt;/font&gt;&lt;/span&gt;" style="text;strokeColor=none;fillColor=none;html=1;fontSize=24;fontStyle=1;verticalAlign=middle;align=center;" vertex="1" parent="1">
          <mxGeometry x="320" y="123" width="50" height="24" as="geometry" />
        </mxCell>
        <mxCell id="qshYgTY-a6CuxJiKTBsL-321" value="&lt;span style=&quot;font-weight: 400;&quot;&gt;&lt;font style=&quot;font-size: 9px;&quot;&gt;(1,1)&lt;/font&gt;&lt;/span&gt;" style="text;strokeColor=none;fillColor=none;html=1;fontSize=24;fontStyle=1;verticalAlign=middle;align=center;" vertex="1" parent="1">
          <mxGeometry x="491" y="123" width="50" height="24" as="geometry" />
        </mxCell>
        <mxCell id="qshYgTY-a6CuxJiKTBsL-322" value="" style="ellipse;whiteSpace=wrap;html=1;aspect=fixed;fillColor=light-dark(#FFFFFF,#000000);strokeWidth=1;perimeterSpacing=0;" vertex="1" parent="1">
          <mxGeometry x="484" y="527" width="6" height="6" as="geometry" />
        </mxCell>
        <mxCell id="qshYgTY-a6CuxJiKTBsL-323" value="" style="ellipse;whiteSpace=wrap;html=1;aspect=fixed;fillColor=light-dark(#FFFFFF,#FFFFFF);strokeWidth=1;perimeterSpacing=0;" vertex="1" parent="1">
          <mxGeometry x="476" y="555" width="6" height="6" as="geometry" />
        </mxCell>
        <mxCell id="qshYgTY-a6CuxJiKTBsL-324" value="" style="ellipse;whiteSpace=wrap;html=1;aspect=fixed;fillColor=light-dark(#FFFFFF,#FFFFFF);strokeWidth=1;perimeterSpacing=0;" vertex="1" parent="1">
          <mxGeometry x="342" y="533" width="6" height="6" as="geometry" />
        </mxCell>
        <mxCell id="qshYgTY-a6CuxJiKTBsL-326" value="" style="ellipse;whiteSpace=wrap;html=1;aspect=fixed;fillColor=light-dark(#FFFFFF,#000000);strokeWidth=1;perimeterSpacing=0;" vertex="1" parent="1">
          <mxGeometry x="328" y="557" width="6" height="6" as="geometry" />
        </mxCell>
        <mxCell id="qshYgTY-a6CuxJiKTBsL-327" value="" style="ellipse;whiteSpace=wrap;html=1;aspect=fixed;fillColor=light-dark(#FFFFFF,#000000);strokeWidth=1;perimeterSpacing=0;" vertex="1" parent="1">
          <mxGeometry x="366" y="614" width="6" height="6" as="geometry" />
        </mxCell>
        <mxCell id="qshYgTY-a6CuxJiKTBsL-329" value="" style="endArrow=none;html=1;rounded=0;" edge="1" parent="1" target="qshYgTY-a6CuxJiKTBsL-328">
          <mxGeometry width="50" height="50" relative="1" as="geometry">
            <mxPoint x="360" y="630" as="sourcePoint" />
            <mxPoint x="430" y="630" as="targetPoint" />
            <Array as="points" />
          </mxGeometry>
        </mxCell>
        <mxCell id="qshYgTY-a6CuxJiKTBsL-328" value="" style="ellipse;whiteSpace=wrap;html=1;aspect=fixed;fillColor=light-dark(#FFFFFF,#FFFFFF);strokeWidth=1;perimeterSpacing=0;" vertex="1" parent="1">
          <mxGeometry x="428.5" y="627" width="6" height="6" as="geometry" />
        </mxCell>
        <mxCell id="qshYgTY-a6CuxJiKTBsL-330" value="" style="ellipse;whiteSpace=wrap;html=1;aspect=fixed;fillColor=light-dark(#FFFFFF,#FFFFFF);strokeWidth=1;perimeterSpacing=0;" vertex="1" parent="1">
          <mxGeometry x="472" y="654" width="6" height="6" as="geometry" />
        </mxCell>
        <mxCell id="qshYgTY-a6CuxJiKTBsL-331" value="" style="ellipse;whiteSpace=wrap;html=1;aspect=fixed;fillColor=light-dark(#FFFFFF,#000000);strokeWidth=1;perimeterSpacing=0;" vertex="1" parent="1">
          <mxGeometry x="484" y="682" width="6" height="6" as="geometry" />
        </mxCell>
        <mxCell id="qshYgTY-a6CuxJiKTBsL-333" value="" style="ellipse;whiteSpace=wrap;html=1;aspect=fixed;fillColor=light-dark(#FFFFFF,#FFFFFF);strokeWidth=1;perimeterSpacing=0;" vertex="1" parent="1">
          <mxGeometry x="366" y="710" width="6" height="6" as="geometry" />
        </mxCell>
        <mxCell id="qshYgTY-a6CuxJiKTBsL-334" value="" style="ellipse;whiteSpace=wrap;html=1;aspect=fixed;fillColor=light-dark(#FFFFFF,#000000);strokeWidth=1;perimeterSpacing=0;" vertex="1" parent="1">
          <mxGeometry x="392" y="710" width="6" height="6" as="geometry" />
        </mxCell>
        <mxCell id="qshYgTY-a6CuxJiKTBsL-335" value="" style="ellipse;whiteSpace=wrap;html=1;aspect=fixed;fillColor=light-dark(#FFFFFF,#000000);strokeWidth=1;perimeterSpacing=0;" vertex="1" parent="1">
          <mxGeometry x="416" y="710" width="6" height="6" as="geometry" />
        </mxCell>
        <mxCell id="qshYgTY-a6CuxJiKTBsL-336" value="&lt;font style=&quot;font-weight: normal; font-size: 10px;&quot;&gt;(1,1)&lt;/font&gt;" style="text;strokeColor=none;fillColor=none;html=1;fontSize=24;fontStyle=1;verticalAlign=middle;align=center;" vertex="1" parent="1">
          <mxGeometry x="330" y="502.5" width="34" height="20" as="geometry" />
        </mxCell>
        <mxCell id="qshYgTY-a6CuxJiKTBsL-337" value="&lt;span style=&quot;font-weight: 400;&quot;&gt;&lt;font style=&quot;font-size: 10px;&quot;&gt;(0,N)&lt;/font&gt;&lt;/span&gt;" style="text;strokeColor=none;fillColor=none;html=1;fontSize=24;fontStyle=1;verticalAlign=middle;align=center;" vertex="1" parent="1">
          <mxGeometry x="561" y="406" width="44" height="30" as="geometry" />
        </mxCell>
        <mxCell id="qshYgTY-a6CuxJiKTBsL-338" value="&lt;span style=&quot;font-weight: 400;&quot;&gt;&lt;font style=&quot;font-size: 10px;&quot;&gt;(0,N)&lt;/font&gt;&lt;/span&gt;" style="text;strokeColor=none;fillColor=none;html=1;fontSize=24;fontStyle=1;verticalAlign=middle;align=center;" vertex="1" parent="1">
          <mxGeometry x="630" y="406" width="44" height="30" as="geometry" />
        </mxCell>
        <mxCell id="qshYgTY-a6CuxJiKTBsL-339" value="&lt;span style=&quot;font-weight: 400;&quot;&gt;&lt;font style=&quot;font-size: 10px;&quot;&gt;(0,N)&lt;/font&gt;&lt;/span&gt;" style="text;strokeColor=none;fillColor=none;html=1;fontSize=24;fontStyle=1;verticalAlign=middle;align=center;" vertex="1" parent="1">
          <mxGeometry x="620" y="280" width="44" height="30" as="geometry" />
        </mxCell>
        <mxCell id="qshYgTY-a6CuxJiKTBsL-340" value="&lt;span style=&quot;font-weight: 400;&quot;&gt;&lt;font style=&quot;font-size: 10px;&quot;&gt;(0,N)&lt;/font&gt;&lt;/span&gt;" style="text;strokeColor=none;fillColor=none;html=1;fontSize=24;fontStyle=1;verticalAlign=middle;align=center;" vertex="1" parent="1">
          <mxGeometry x="160" y="276" width="44" height="30" as="geometry" />
        </mxCell>
        <mxCell id="qshYgTY-a6CuxJiKTBsL-341" value="&lt;font style=&quot;font-weight: normal; font-size: 10px;&quot;&gt;(1,1)&lt;/font&gt;" style="text;strokeColor=none;fillColor=none;html=1;fontSize=24;fontStyle=1;verticalAlign=middle;align=center;" vertex="1" parent="1">
          <mxGeometry x="160" y="555" width="34" height="20" as="geometry" />
        </mxCell>
      </root>
    </mxGraphModel>
  </diagram>
</mxfile>
